<svg xmlns="http://www.w3.org/2000/svg" width="23" height="22" viewBox="0 0 23 22" fill="none">
  <path fill-rule="evenodd" clip-rule="evenodd" d="M11.1104 0C8.04114 0 5.55519 2.40057 5.55519 5.36439C5.55519 8.32822 8.04114 10.7288 11.1104 10.7288C14.1796 10.7288 16.6656 8.32822 16.6656 5.36439C16.6656 2.40057 14.1796 0 11.1104 0ZM13.888 5.36454C13.888 3.88933 12.6381 2.68234 11.1104 2.68234C9.58272 2.68234 8.3328 3.88933 8.3328 5.36454C8.3328 6.83975 9.58272 8.04673 11.1104 8.04673C12.6381 8.04673 13.888 6.83975 13.888 5.36454ZM19.4432 18.7755C19.1654 17.8233 14.8601 16.0933 11.1104 16.0933C7.37452 16.0933 3.09702 17.8099 2.7776 18.7755H19.4432ZM0 18.7755C0 15.2082 7.40229 13.4111 11.1104 13.4111C14.8185 13.4111 22.2208 15.2082 22.2208 18.7755V21.4577H0V18.7755Z" fill="#47000D"/>
</svg>